<?xml version="1.0" encoding="utf-8"?>
<!DOCTYPE svg PUBLIC "-//W3C//DTD SVG 1.0//EN" "http://www.w3.org/TR/2001/REC-SVG-20010904/DTD/svg10.dtd">
<svg version="1.0" xmlns="http://www.w3.org/2000/svg" width="392px" height="380px" viewBox="0 0 392 380" preserveAspectRatio="xMidYMid meet">
 <g fill="#ffffff">
  <path d="M0 190 l0 -190 196 0 196 0 0 190 0 190 -196 0 -196 0 0 -190z m210.25 141.25 c16.25 -1.90 30.55 -6 44.45 -12.80 4.95 -2.45 8.75 -3.20 9.55 -1.95 0.15 0.30 1.55 0.50 3.05 0.50 3.05 0 6.90 -1.65 11.65 -5.05 2.10 -1.50 3.15 -1.95 4.75 -1.95 2.55 0.05 3.75 0.90 12.65 9.35 7.95 7.55 10.50 9.40 14 10.20 5.10 1.20 9.55 -1.15 18.15 -9.65 4.30 -4.15 4.90 -5 5.95 -8.05 1.15 -3.35 1.15 -3.40 0.30 -5.75 -1.65 -4.35 -4.05 -7.50 -12.15 -15.90 -8.40 -8.65 -9.35 -10.70 -6.95 -14.60 0.65 -1 2 -3.85 3.05 -6.35 1 -2.45 2.20 -5.25 2.60 -6.15 0.35 -0.90 0.70 -1.95 0.70 -2.35 0 -0.40 0.80 -3 1.75 -5.80 1.30 -3.80 1.75 -5.95 1.75 -8.35 0 -2.60 0.30 -3.90 1.55 -6.55 5.30 -11.20 9.60 -26.45 12.30 -43.55 1.25 -8 1.25 -25.60 0 -33 -1.95 -11.45 -8.15 -30.30 -12.35 -37.50 -0.75 -1.25 -2.55 -4.85 -4 -8 -10.30 -21.90 -24.30 -39.20 -43.75 -54.20 -7.60 -5.90 -9.70 -7.35 -16.50 -11.40 -26.50 -15.85 -60.15 -24.35 -88.65 -22.40 -7.40 0.55 -18.20 2 -22.10 3 -0.95 0.25 -4.05 1.05 -6.85 1.75 -21.30 5.25 -41.45 16.65 -57.15 32.25 -16.20 16.10 -27.30 33.55 -36.65 57.75 -5.85 15.10 -9.20 27.75 -11.60 44.25 -4.40 30.20 -1.20 54.50 10.40 78.25 8 16.35 23.10 33.45 41.10 46.60 11.55 8.40 32.50 20.50 42.75 24.65 1.50 0.60 3.20 1.30 3.75 1.55 3.65 1.60 20 6.85 23.75 7.60 0.70 0.15 3.50 0.75 6.25 1.35 12.40 2.75 30.10 3.70 42.50 2.25z"/>
  <path d="M188 311.70 c-14.10 -1.60 -19.35 -2.55 -28.25 -5 -15.40 -4.25 -25.05 -8.40 -39.50 -16.95 -16 -9.45 -25.60 -16.65 -34.50 -25.85 -8.60 -8.80 -14.65 -17.25 -18.55 -25.70 -2.50 -5.45 -2.50 -5.50 -3.90 -9.70 -9.25 -28.10 -6.10 -67.60 8.20 -101.75 1.15 -2.75 2.35 -5.65 2.65 -6.50 1.85 -5.10 8.80 -17.15 14.05 -24.40 9.35 -12.95 20.30 -23.10 33.05 -30.60 25.35 -14.95 60.05 -19.20 93.50 -11.50 6.85 1.55 19.70 5.75 20.95 6.85 0.30 0.20 0.80 0.40 1.20 0.40 0.40 0 3.20 1.20 6.30 2.70 23.25 11.30 42.35 28.30 57.35 51.05 5 7.65 7.25 11.75 7.70 14.40 0.20 1.05 1.05 3.65 1.85 5.75 0.80 2.10 2.40 6.35 3.50 9.35 1.10 3.05 2.20 5.95 2.45 6.50 0.75 1.80 2.95 11.45 3.50 15.50 1 6.80 0.70 23.50 -0.50 31 -1.65 10.30 -3.55 18.30 -6.45 26.75 -2.40 7.05 -8.30 19.60 -12.40 26.35 -0.50 0.85 -1.60 2.65 -2.40 4 -2.80 4.55 -9.45 13.40 -14.30 18.90 -9.65 10.95 -20.50 19.25 -34.75 26.50 -15.50 7.90 -31.05 11.65 -50 12 -4.95 0.10 -9.80 0.05 -10.75 -0.05z m61.45 -75.45 c9.45 -2.25 16.75 -8.90 22.40 -20.30 2.45 -4.95 2.10 -7.75 -1.35 -10.65 -2.20 -1.85 -3.70 -2.10 -6.05 -1 -2.55 1.10 -4.45 3.30 -6.40 7.30 -1.95 3.95 -5.10 7.65 -7.60 8.90 -2.40 1.25 -9 1.35 -12.65 0.25 -8.50 -2.60 -19 -12 -26.95 -24.25 -3.65 -5.65 -4.15 -6.55 -10.20 -18.45 -4.30 -8.55 -5.15 -10.60 -5.15 -12.50 0 -3.85 2.85 -12.90 6.45 -20.55 3.25 -6.80 9.90 -14.15 15.40 -16.90 4.25 -2.15 8.40 -2.75 17.30 -2.50 6.10 0.15 7.95 0.40 9.35 1.15 2.95 1.55 4.10 1.70 6 0.75 5.75 -2.90 5.50 -8.20 -0.55 -11.75 -3.90 -2.30 -8.55 -3.60 -14.80 -4.25 -19.35 -1.90 -36.20 8.40 -45.95 28.15 -1.90 3.75 -1.95 3.85 -3.75 3.85 -1.65 0 -2 -0.25 -3.15 -2.20 -1.90 -3.30 -7.15 -10.20 -10 -13.25 -5.15 -5.40 -11.85 -9.75 -17.95 -11.65 -11.55 -3.50 -23.60 1.50 -31.60 13.10 -3.75 5.35 -7.20 14.60 -6.50 17.35 0.50 2.15 3.95 5.15 5.90 5.15 3.15 -0.05 5.65 -2.60 7.15 -7.20 2.15 -6.70 7.45 -13.15 11.75 -14.30 3.60 -1 9.95 -0.35 13.20 1.25 7.15 3.65 13.95 12.25 21.55 27.35 2.90 5.75 3.20 6.60 3.20 9.40 0 7.15 -5.50 28.10 -9.40 35.85 -2.95 5.80 -7.10 10.25 -11.35 12.15 -4.65 2.15 -14.70 1.65 -19.35 -0.85 -2.70 -1.50 -3.40 -2.25 -6.55 -7.10 -2.65 -4.05 -4.30 -5.30 -7 -5.30 -4.30 0 -7.90 4.50 -6.80 8.55 1.05 3.75 4.95 9.70 8.40 12.85 2.20 2 7.45 5.05 11.10 6.40 9.20 3.50 20.35 2.40 28.70 -2.80 3.85 -2.40 9.65 -8.05 12.50 -12.20 2.60 -3.75 6.40 -11.90 8.35 -17.90 l1.65 -5.15 1.80 0 c1.65 0 1.85 0.20 3.40 3.05 2.65 4.95 6.65 10.90 10.90 16.20 10.50 13.20 22.20 21.40 34.15 23.95 4.30 0.95 6.60 0.95 10.45 0.05z"/>
 </g>
 <g fill="#20a6c5">
  <path d="M178.75 332.50 c-4.10 -0.50 -9.75 -1.40 -12.50 -2 -2.75 -0.60 -5.55 -1.20 -6.25 -1.35 -3.75 -0.75 -20.10 -6 -23.75 -7.60 -0.55 -0.25 -2.25 -0.95 -3.75 -1.55 -10.25 -4.15 -31.20 -16.25 -42.75 -24.65 -11.70 -8.55 -23 -19.55 -31.10 -30.35 -16.30 -21.80 -23.95 -49.45 -22.10 -80.30 1.65 -28.75 8.95 -55.45 22 -81 12.05 -23.50 30.25 -43.75 50.45 -55.95 10.25 -6.20 23.45 -11.75 34.65 -14.50 2.80 -0.70 5.90 -1.50 6.85 -1.75 4.05 -1.05 14.85 -2.50 22.85 -3 30.30 -2.05 63.85 6.25 90.90 22.40 6.80 4.05 8.90 5.50 16.50 11.40 19.45 15 33.45 32.30 43.75 54.20 1.45 3.15 3.25 6.75 4 8 4.20 7.15 10.40 26 12.35 37.50 1.25 7.50 1.25 27.90 0 36 -2.70 17.20 -7 32.35 -12.30 43.60 -1.35 2.85 -1.55 3.75 -1.30 5.55 0.30 1.80 -0.05 3.35 -1.70 8.35 -1.15 3.40 -2.05 6.45 -2.05 6.80 0 0.35 -0.35 1.40 -0.70 2.30 -0.40 0.90 -1.60 3.70 -2.60 6.15 -1.05 2.50 -2.40 5.35 -3.05 6.40 -0.95 1.55 -1.10 2.05 -0.60 2.65 0.45 0.55 0.30 1.10 -0.80 2.75 -0.80 1.10 -2.05 2.45 -2.85 3 -0.75 0.55 -1.40 1.30 -1.40 1.65 0 0.40 -1 1.60 -2.25 2.75 -1.25 1.15 -2.25 2.20 -2.25 2.35 0 0.50 -14.60 14.70 -15.10 14.70 -0.25 0 -0.55 0.35 -0.70 0.75 -0.20 0.40 -0.55 0.75 -0.90 0.75 -0.30 0 -1.30 0.70 -2.20 1.50 -0.90 0.85 -1.85 1.50 -2.15 1.50 -0.25 0 -0.45 0.25 -0.45 0.50 0 0.30 -0.40 0.25 -1 -0.10 -0.85 -0.55 -1.35 -0.35 -3.85 1.40 -1.60 1.15 -4.30 2.75 -6 3.65 -2.75 1.35 -3.65 1.55 -7.15 1.55 -2.20 0 -4.45 -0.25 -4.95 -0.60 -0.80 -0.50 -1.75 -0.20 -5.90 1.85 -23.70 11.60 -50.50 16 -77.90 12.75z m32.75 -23.20 c14.15 -2.05 24.30 -5.20 35.75 -11.05 14.25 -7.25 25.10 -15.55 34.75 -26.50 4.85 -5.50 11.50 -14.35 14.30 -18.90 0.80 -1.35 1.90 -3.15 2.40 -4 4.10 -6.75 10 -19.30 12.40 -26.35 2.90 -8.50 4.85 -16.55 6.45 -26.75 1.20 -7.40 1.40 -21.80 0.50 -28.25 -0.60 -3.90 -2.80 -13.50 -3.50 -15.25 -0.25 -0.55 -1.35 -3.45 -2.45 -6.50 -1.10 -3 -2.70 -7.25 -3.50 -9.35 -0.80 -2.10 -1.65 -4.70 -1.85 -5.75 -0.45 -2.65 -2.70 -6.75 -7.70 -14.40 -15 -22.75 -34.10 -39.75 -57.35 -51.05 -3.10 -1.50 -5.90 -2.70 -6.30 -2.70 -0.40 0 -0.90 -0.20 -1.20 -0.40 -1.25 -1.10 -14.10 -5.30 -20.95 -6.85 -21.35 -4.90 -40.20 -4.95 -61 -0.15 -32 7.40 -56.75 27.70 -73.60 60.40 -1.35 2.60 -2.70 5.45 -3 6.25 -0.30 0.85 -1.50 3.75 -2.65 6.50 -8.50 20.35 -13.50 44.70 -13.50 65.70 0 12.05 3.10 28.75 6.95 37.80 5.20 12.10 10.80 20.35 20.80 30.65 8.90 9.20 18.50 16.40 34.50 25.85 14.45 8.55 24.10 12.70 39.50 16.95 8.90 2.45 13.95 3.35 28.25 5 3.40 0.40 16.80 -0.15 22 -0.90z"/>
 </g>
 <g fill="#11303f">
  <path d="M237.50 237.70 c-11.95 -2.55 -23.65 -10.75 -34.15 -23.95 -4.25 -5.30 -8.25 -11.25 -10.90 -16.20 -0.90 -1.70 -1.75 -3.05 -1.90 -3.05 -0.20 0 -1.05 2.30 -1.95 5.15 -1.95 6 -5.75 14.15 -8.35 17.90 -2.85 4.15 -8.65 9.80 -12.50 12.20 -8.40 5.25 -19.90 6.45 -30.50 3.20 -3.65 -1.10 -10.35 -4.90 -12.65 -7.10 -2.15 -2.05 -5.65 -6.95 -7 -9.85 -3.20 -6.75 -1.05 -12.65 5.20 -14.50 1.75 -0.50 2.45 -0.50 4.55 0.20 2.95 1 4.20 2.20 6.95 6.70 2.20 3.70 5.30 6.20 8.85 7.15 2.80 0.75 9.65 0.80 11.90 0 4.40 -1.45 9.45 -6.60 12.55 -12.70 3.40 -6.80 9.40 -28.60 9.40 -34.35 0 -1.75 -4.85 -11.75 -9 -18.50 -8.55 -13.90 -17.70 -20.25 -25.95 -18 -4.50 1.20 -9.35 7.35 -12.25 15.50 -2.10 6 -8.05 8.15 -12.70 4.65 -4.15 -3.15 -4.15 -8.50 0.15 -17.90 4.25 -9.40 11.60 -16.50 20 -19.30 4.90 -1.65 12.90 -1.65 18.10 -0.05 6.15 1.90 12.85 6.25 17.95 11.65 2.85 3.05 8.10 9.95 10 13.25 0.70 1.20 1.45 2.20 1.65 2.20 0.20 0 1.20 -1.75 2.25 -3.85 10.10 -20.45 26.90 -30.25 48.35 -28.15 10.45 1 17.35 3.95 19.45 8.30 2.05 4.15 0.75 8.20 -3.30 10.60 -2.35 1.40 -5.50 1.25 -8.80 -0.45 -1.75 -0.90 -3.25 -1.15 -8.20 -1.35 -10.50 -0.40 -16.10 1.35 -21.85 6.85 -2.65 2.50 -6.05 6.60 -7.70 9.30 -2.15 3.45 -5.70 12.50 -7.15 18 l-1.15 4.55 3.80 7.70 c9.40 19 13.70 25.70 21.80 34.15 9.75 10.15 20.20 14.60 26.50 11.35 2.60 -1.30 5.55 -4.85 7.85 -9.35 2.10 -4.20 4.05 -6.15 7.40 -7.40 2.75 -1.05 5.25 -0.55 7.80 1.55 2.25 1.90 3 3.75 3 7.20 0 3.55 -1.60 7.25 -5.75 13.45 -7.50 11.20 -19 16 -31.75 13.25z"/>
 </g>
 <g fill="#699ea9">
  <path d="M309.35 331.20 c-3.95 -0.95 -6.50 -2.75 -14.60 -10.45 -3.75 -3.55 -7.80 -7.20 -8.95 -8 -1.85 -1.30 -2.55 -2.75 -1.30 -2.75 0.25 0 1.20 -0.65 2.10 -1.50 0.90 -0.80 1.90 -1.50 2.25 -1.50 0.35 0 0.65 -0.25 0.65 -0.50 0 -0.30 0.30 -0.65 0.70 -0.80 0.80 -0.30 15.05 -14.20 15.05 -14.65 0 -0.15 1.05 -1.30 2.35 -2.50 1.30 -1.20 2.30 -2.35 2.15 -2.55 -0.15 -0.25 0.65 -1.15 1.75 -2 1.15 -0.90 1.90 -1.75 1.80 -1.90 -0.15 -0.15 0.15 -0.60 0.70 -0.95 0.55 -0.40 0.90 -0.90 0.75 -1.15 -0.15 -0.20 0.10 -0.50 0.50 -0.65 0.70 -0.30 2.75 1.80 2.75 2.80 0 0.25 2.70 3.25 6 6.55 12.15 12.30 14.55 17.20 11.95 24.65 -1.05 3.05 -1.65 3.90 -5.95 8.05 -7.40 7.30 -10.45 9.20 -16.50 10.25 -0.70 0.15 -2.55 -0.05 -4.15 -0.45z"/>
 </g>
</svg>